<svg width="62" height="64" viewBox="0 0 62 64" fill="none" xmlns="http://www.w3.org/2000/svg">
<path d="M31.0138 30.745C29.4092 30.745 28.1075 32.0875 28.1075 33.745C28.2455 42.7762 27.1218 51.4825 24.7531 60.1887C24.4225 61.4037 25.0135 64 27.5529 64C28.8219 64 29.9881 63.135 30.3489 61.81C31.9874 55.8212 34.1077 46.1337 33.9188 33.745C33.92 32.0887 32.6195 30.745 31.0138 30.745ZM30.9096 20.5287C23.4913 20.52 18.3145 26.4125 18.4174 33.165C18.5083 39.1575 17.9633 45.1537 16.7984 50.9837C16.4726 52.6062 17.485 54.195 19.0556 54.5287C20.6359 54.8625 22.1641 53.8212 22.4899 52.1987C23.742 45.9375 24.3269 39.5012 24.23 33.0712C24.1804 29.8275 26.6422 26.51 30.8236 26.5287C34.6151 26.5875 37.7442 29.6962 37.8011 33.4625C37.8944 39.4687 37.4609 45.5037 36.5163 51.4062C36.2535 53.0387 37.3265 54.5837 38.9092 54.8537C41.3274 55.27 42.1557 52.9662 42.249 52.3825C43.2516 46.1287 43.7094 39.7312 43.6137 33.3687C43.5071 26.3937 37.8084 20.6337 30.9096 20.5287ZM17.5056 18.0562C16.2583 17.0137 14.4334 17.2062 13.4174 18.4912C10.315 22.4287 8.64748 27.4012 8.72498 32.4912C8.79643 37.1887 8.42587 41.9 7.6218 46.4975C7.33844 48.1287 8.38591 49.6887 9.9662 49.9837C12.4014 50.4212 13.2443 48.1325 13.3435 47.5637C14.2142 42.5837 14.615 37.4812 14.5375 32.3975C14.4806 28.6625 15.6516 25.1625 17.9282 22.2762C18.9394 20.9912 18.7505 19.1025 17.5056 18.0562ZM30.7619 10.265C28.8958 10.2137 27.0237 10.445 25.2181 10.8862C23.6572 11.2687 22.6909 12.8837 23.059 14.4975C23.4296 16.1087 24.9965 17.1012 26.5575 16.7262C27.8956 16.4 29.2785 16.255 30.6747 16.265C39.8089 16.4062 47.3531 23.9525 47.4924 33.0875C47.5638 37.8225 47.3374 42.6012 46.8167 47.2912C46.635 48.9375 47.7794 50.4263 49.373 50.6138C51.3977 50.8575 52.4621 49.1287 52.5917 47.975C53.1419 43.0023 53.3802 37.9981 53.305 32.9937C53.116 20.65 43.0034 10.4525 30.7619 10.265ZM61.2863 25.4462C60.94 23.8312 59.4081 22.7962 57.8218 23.1625C56.2548 23.52 55.2643 25.12 55.6106 26.7387C56.181 29.415 56.2052 31.415 56.1798 34.4387C56.1664 36.0975 57.4573 37.45 59.0618 37.4637H59.086C60.6809 37.4637 61.979 36.1375 61.9923 34.4887C62.0141 31.7162 62.0408 28.975 61.2863 25.4462ZM56.428 14.1062C50.5307 5.43249 40.8806 0.161242 30.6129 0.00249176C22.1617 -0.102508 14.345 3.11374 8.53123 9.11749C2.91604 14.9212 -0.110124 22.63 0.015815 30.8312L0.00128361 33.515C-0.0459435 35.1712 1.21587 36.5537 2.82038 36.6012C2.84823 36.6037 2.8785 36.6037 2.90757 36.6037C4.47212 36.6037 5.7642 35.3162 5.81022 33.6912L5.82959 30.7362C5.72909 24.1737 8.14978 18.0037 12.6448 13.3612C17.3385 8.51124 23.7057 5.90249 30.5282 6.00374C38.9382 6.13249 46.8433 10.4487 51.6738 17.5525C52.5953 18.91 54.4057 19.2337 55.7208 18.285C57.0335 17.3325 57.3507 15.4612 56.428 14.1062Z" fill="#555555"/>
</svg>
