<svg width="47" height="64" viewBox="0 0 47 64" fill="none" xmlns="http://www.w3.org/2000/svg">
<path d="M12.8262 56.7927C12.8275 57.5789 13.0759 58.3489 13.5419 59.0039L15.8238 62.215C16.2136 62.764 16.7423 63.2142 17.3629 63.5256C17.9835 63.837 18.6767 64 19.3808 64H27.6205C28.3246 64 29.0178 63.837 29.6384 63.5256C30.259 63.2142 30.7877 62.764 31.1776 62.215L33.4595 59.0039C33.9253 58.3488 34.1742 57.5796 34.1751 56.7927L34.1805 51.999H12.8195L12.8262 56.7927ZM0 21.9996C0 27.5458 2.19645 32.6057 5.81625 36.4718C8.02205 38.828 11.4723 43.7504 12.7875 47.9028C12.7928 47.9353 12.7968 47.9678 12.8022 48.0003H34.1978C34.2032 47.9678 34.2072 47.9366 34.2125 47.9028C35.5277 43.7504 38.978 38.828 41.1838 36.4718C44.8036 32.6057 47 27.5458 47 21.9996C47 9.82615 36.4397 -0.0373926 23.4266 0.00010657C9.80591 0.0388558 0 10.3711 0 21.9996ZM23.5 11.9999C17.6103 11.9999 12.8182 16.486 12.8182 21.9996C12.8182 23.1046 11.8622 23.9996 10.6818 23.9996C9.50148 23.9996 8.54545 23.1046 8.54545 21.9996C8.54545 14.2798 15.2536 7.99994 23.5 7.99994C24.6803 7.99994 25.6364 8.89492 25.6364 9.9999C25.6364 11.1049 24.6803 11.9999 23.5 11.9999Z" fill="#555555"/>
</svg>
