<svg width="50" height="55" viewBox="0 0 50 55" fill="none" xmlns="http://www.w3.org/2000/svg">
<path d="M44.6429 27.5001H16.9643V16.4249C16.9643 12.171 20.5022 8.63681 24.9219 8.59384C29.3862 8.55087 33.0357 12.0421 33.0357 16.3282V18.0469C33.0357 19.4757 34.2299 20.6251 35.7143 20.6251H39.2857C40.7701 20.6251 41.9643 19.4757 41.9643 18.0469V16.3282C41.9643 7.30478 34.3192 -0.0321207 24.9442 0.000105759C15.5692 0.0323323 8.03571 7.46591 8.03571 16.4893V27.5001H5.35714C2.39955 27.5001 0 29.8096 0 32.6563V49.8438C0 52.6904 2.39955 55 5.35714 55H44.6429C47.6004 55 50 52.6904 50 49.8438V32.6563C50 29.8096 47.6004 27.5001 44.6429 27.5001ZM29.4643 43.8281C29.4643 46.2022 27.4665 48.125 25 48.125C22.5335 48.125 20.5357 46.2022 20.5357 43.8281V38.6719C20.5357 36.2979 22.5335 34.375 25 34.375C27.4665 34.375 29.4643 36.2979 29.4643 38.6719V43.8281Z" fill="#555555"/>
</svg>
