<svg width="62" height="62" viewBox="0 0 62 62" fill="none" xmlns="http://www.w3.org/2000/svg">
<path d="M58.125 17.7143H3.875C1.73491 17.7143 0 15.7315 0 13.2857V4.42857C0 1.98275 1.73491 0 3.875 0H58.125C60.2651 0 62 1.98275 62 4.42857V13.2857C62 15.7315 60.2651 17.7143 58.125 17.7143ZM52.3125 5.53571C50.7074 5.53571 49.4062 7.02275 49.4062 8.85714C49.4062 10.6915 50.7074 12.1786 52.3125 12.1786C53.9176 12.1786 55.2188 10.6915 55.2188 8.85714C55.2188 7.02275 53.9176 5.53571 52.3125 5.53571ZM44.5625 5.53571C42.9574 5.53571 41.6562 7.02275 41.6562 8.85714C41.6562 10.6915 42.9574 12.1786 44.5625 12.1786C46.1676 12.1786 47.4688 10.6915 47.4688 8.85714C47.4688 7.02275 46.1676 5.53571 44.5625 5.53571ZM58.125 39.8571H3.875C1.73491 39.8571 0 37.8744 0 35.4286V26.5714C0 24.1256 1.73491 22.1429 3.875 22.1429H58.125C60.2651 22.1429 62 24.1256 62 26.5714V35.4286C62 37.8744 60.2651 39.8571 58.125 39.8571ZM52.3125 27.6786C50.7074 27.6786 49.4062 29.1656 49.4062 31C49.4062 32.8344 50.7074 34.3214 52.3125 34.3214C53.9176 34.3214 55.2188 32.8344 55.2188 31C55.2188 29.1656 53.9176 27.6786 52.3125 27.6786ZM44.5625 27.6786C42.9574 27.6786 41.6562 29.1656 41.6562 31C41.6562 32.8344 42.9574 34.3214 44.5625 34.3214C46.1676 34.3214 47.4688 32.8344 47.4688 31C47.4688 29.1656 46.1676 27.6786 44.5625 27.6786ZM58.125 62H3.875C1.73491 62 0 60.0172 0 57.5714V48.7143C0 46.2685 1.73491 44.2857 3.875 44.2857H58.125C60.2651 44.2857 62 46.2685 62 48.7143V57.5714C62 60.0172 60.2651 62 58.125 62ZM52.3125 49.8214C50.7074 49.8214 49.4062 51.3085 49.4062 53.1429C49.4062 54.9773 50.7074 56.4643 52.3125 56.4643C53.9176 56.4643 55.2188 54.9773 55.2188 53.1429C55.2188 51.3085 53.9176 49.8214 52.3125 49.8214ZM44.5625 49.8214C42.9574 49.8214 41.6562 51.3085 41.6562 53.1429C41.6562 54.9773 42.9574 56.4643 44.5625 56.4643C46.1676 56.4643 47.4688 54.9773 47.4688 53.1429C47.4688 51.3085 46.1676 49.8214 44.5625 49.8214Z" fill="#555555"/>
</svg>
